<mxfile host="app.diagrams.net" modified="2023-10-29T02:30:39.796Z" agent="Mozilla/5.0 (Windows NT 10.0; Win64; x64) AppleWebKit/537.36 (KHTML, like Gecko) Chrome/118.0.0.0 Safari/537.36" etag="WpE-YbTtteH88VVDRpWe" version="22.0.8" type="github">
  <diagram name="Page-1" id="dLM7wwrleONXEJHHHpF5">
    <mxGraphModel dx="2100" dy="1068" grid="1" gridSize="10" guides="1" tooltips="1" connect="1" arrows="1" fold="1" page="1" pageScale="1" pageWidth="850" pageHeight="1100" math="0" shadow="0">
      <root>
        <mxCell id="0" />
        <mxCell id="1" parent="0" />
        <mxCell id="6D9Z85qm0YUrqHq99hwS-1" style="edgeStyle=none;rounded=0;orthogonalLoop=1;jettySize=auto;html=1;entryX=0.5;entryY=0;entryDx=0;entryDy=0;" edge="1" parent="1" source="6D9Z85qm0YUrqHq99hwS-4" target="6D9Z85qm0YUrqHq99hwS-6">
          <mxGeometry relative="1" as="geometry" />
        </mxCell>
        <mxCell id="6D9Z85qm0YUrqHq99hwS-2" style="edgeStyle=none;rounded=0;orthogonalLoop=1;jettySize=auto;html=1;entryX=0.5;entryY=0;entryDx=0;entryDy=0;" edge="1" parent="1" source="6D9Z85qm0YUrqHq99hwS-4" target="6D9Z85qm0YUrqHq99hwS-9">
          <mxGeometry relative="1" as="geometry" />
        </mxCell>
        <mxCell id="6D9Z85qm0YUrqHq99hwS-3" style="edgeStyle=none;rounded=0;orthogonalLoop=1;jettySize=auto;html=1;" edge="1" parent="1" source="6D9Z85qm0YUrqHq99hwS-4" target="6D9Z85qm0YUrqHq99hwS-8">
          <mxGeometry relative="1" as="geometry" />
        </mxCell>
        <mxCell id="6D9Z85qm0YUrqHq99hwS-4" value="age" style="ellipse;whiteSpace=wrap;html=1;fillColor=#ffe6cc;strokeColor=#d79b00;" vertex="1" parent="1">
          <mxGeometry x="375" y="190" width="100" height="60" as="geometry" />
        </mxCell>
        <mxCell id="6D9Z85qm0YUrqHq99hwS-5" style="edgeStyle=none;rounded=0;orthogonalLoop=1;jettySize=auto;html=1;entryX=0.5;entryY=0;entryDx=0;entryDy=0;" edge="1" parent="1" source="6D9Z85qm0YUrqHq99hwS-6" target="6D9Z85qm0YUrqHq99hwS-13">
          <mxGeometry relative="1" as="geometry" />
        </mxCell>
        <mxCell id="6D9Z85qm0YUrqHq99hwS-6" value="&amp;lt;=30&lt;br&gt;[+2, -3]" style="ellipse;whiteSpace=wrap;html=1;fillColor=#dae8fc;strokeColor=#6c8ebf;" vertex="1" parent="1">
          <mxGeometry x="240" y="300" width="100" height="60" as="geometry" />
        </mxCell>
        <mxCell id="6D9Z85qm0YUrqHq99hwS-7" style="edgeStyle=none;rounded=0;orthogonalLoop=1;jettySize=auto;html=1;entryX=0.5;entryY=0;entryDx=0;entryDy=0;" edge="1" parent="1" source="6D9Z85qm0YUrqHq99hwS-8" target="6D9Z85qm0YUrqHq99hwS-10">
          <mxGeometry relative="1" as="geometry" />
        </mxCell>
        <mxCell id="6D9Z85qm0YUrqHq99hwS-8" value="31-40&lt;br&gt;[+4, -0]" style="ellipse;whiteSpace=wrap;html=1;fillColor=#dae8fc;strokeColor=#6c8ebf;" vertex="1" parent="1">
          <mxGeometry x="375" y="300" width="100" height="60" as="geometry" />
        </mxCell>
        <mxCell id="6D9Z85qm0YUrqHq99hwS-9" value="&amp;gt;40&lt;br&gt;[+3, 2]" style="ellipse;whiteSpace=wrap;html=1;fillColor=#dae8fc;strokeColor=#6c8ebf;" vertex="1" parent="1">
          <mxGeometry x="510" y="300" width="100" height="60" as="geometry" />
        </mxCell>
        <mxCell id="6D9Z85qm0YUrqHq99hwS-10" value="yes" style="rounded=0;whiteSpace=wrap;html=1;fillColor=#e1d5e7;strokeColor=#9673a6;" vertex="1" parent="1">
          <mxGeometry x="388" y="410" width="75" height="30" as="geometry" />
        </mxCell>
        <mxCell id="6D9Z85qm0YUrqHq99hwS-11" style="edgeStyle=none;rounded=0;orthogonalLoop=1;jettySize=auto;html=1;entryX=0.5;entryY=0;entryDx=0;entryDy=0;" edge="1" parent="1" source="6D9Z85qm0YUrqHq99hwS-13" target="6D9Z85qm0YUrqHq99hwS-15">
          <mxGeometry relative="1" as="geometry" />
        </mxCell>
        <mxCell id="6D9Z85qm0YUrqHq99hwS-12" style="edgeStyle=none;rounded=0;orthogonalLoop=1;jettySize=auto;html=1;entryX=0.5;entryY=0;entryDx=0;entryDy=0;" edge="1" parent="1" source="6D9Z85qm0YUrqHq99hwS-13" target="6D9Z85qm0YUrqHq99hwS-17">
          <mxGeometry relative="1" as="geometry" />
        </mxCell>
        <mxCell id="6D9Z85qm0YUrqHq99hwS-13" value="student" style="ellipse;whiteSpace=wrap;html=1;fillColor=#ffe6cc;strokeColor=#d79b00;" vertex="1" parent="1">
          <mxGeometry x="240" y="395" width="100" height="60" as="geometry" />
        </mxCell>
        <mxCell id="6D9Z85qm0YUrqHq99hwS-14" value="" style="edgeStyle=none;rounded=0;orthogonalLoop=1;jettySize=auto;html=1;" edge="1" parent="1" source="6D9Z85qm0YUrqHq99hwS-15" target="6D9Z85qm0YUrqHq99hwS-18">
          <mxGeometry relative="1" as="geometry" />
        </mxCell>
        <mxCell id="6D9Z85qm0YUrqHq99hwS-15" value="yes&lt;br&gt;[+3, -0]" style="ellipse;whiteSpace=wrap;html=1;fillColor=#dae8fc;strokeColor=#6c8ebf;" vertex="1" parent="1">
          <mxGeometry x="160" y="490" width="100" height="60" as="geometry" />
        </mxCell>
        <mxCell id="6D9Z85qm0YUrqHq99hwS-16" value="" style="edgeStyle=none;rounded=0;orthogonalLoop=1;jettySize=auto;html=1;" edge="1" parent="1" source="6D9Z85qm0YUrqHq99hwS-17" target="6D9Z85qm0YUrqHq99hwS-19">
          <mxGeometry relative="1" as="geometry" />
        </mxCell>
        <mxCell id="6D9Z85qm0YUrqHq99hwS-17" value="no&lt;br&gt;[+0, -2]" style="ellipse;whiteSpace=wrap;html=1;fillColor=#dae8fc;strokeColor=#6c8ebf;" vertex="1" parent="1">
          <mxGeometry x="310" y="490" width="100" height="60" as="geometry" />
        </mxCell>
        <mxCell id="6D9Z85qm0YUrqHq99hwS-18" value="yes" style="rounded=0;whiteSpace=wrap;html=1;fillColor=#e1d5e7;strokeColor=#9673a6;" vertex="1" parent="1">
          <mxGeometry x="172.5" y="595" width="75" height="30" as="geometry" />
        </mxCell>
        <mxCell id="6D9Z85qm0YUrqHq99hwS-19" value="no" style="rounded=0;whiteSpace=wrap;html=1;fillColor=#e1d5e7;strokeColor=#9673a6;" vertex="1" parent="1">
          <mxGeometry x="322.5" y="595" width="75" height="30" as="geometry" />
        </mxCell>
        <mxCell id="6D9Z85qm0YUrqHq99hwS-28" style="edgeStyle=none;rounded=0;orthogonalLoop=1;jettySize=auto;html=1;entryX=0.5;entryY=0;entryDx=0;entryDy=0;" edge="1" parent="1" source="6D9Z85qm0YUrqHq99hwS-20" target="6D9Z85qm0YUrqHq99hwS-21">
          <mxGeometry relative="1" as="geometry" />
        </mxCell>
        <mxCell id="6D9Z85qm0YUrqHq99hwS-29" style="edgeStyle=none;rounded=0;orthogonalLoop=1;jettySize=auto;html=1;entryX=0.5;entryY=0;entryDx=0;entryDy=0;" edge="1" parent="1" source="6D9Z85qm0YUrqHq99hwS-20" target="6D9Z85qm0YUrqHq99hwS-22">
          <mxGeometry relative="1" as="geometry" />
        </mxCell>
        <mxCell id="6D9Z85qm0YUrqHq99hwS-20" value="credit_rating" style="ellipse;whiteSpace=wrap;html=1;fillColor=#ffe6cc;strokeColor=#d79b00;" vertex="1" parent="1">
          <mxGeometry x="510" y="395" width="100" height="60" as="geometry" />
        </mxCell>
        <mxCell id="6D9Z85qm0YUrqHq99hwS-26" value="" style="edgeStyle=orthogonalEdgeStyle;rounded=0;orthogonalLoop=1;jettySize=auto;html=1;" edge="1" parent="1" source="6D9Z85qm0YUrqHq99hwS-21" target="6D9Z85qm0YUrqHq99hwS-23">
          <mxGeometry relative="1" as="geometry" />
        </mxCell>
        <mxCell id="6D9Z85qm0YUrqHq99hwS-21" value="excellent&lt;br&gt;[+0, -2]" style="ellipse;whiteSpace=wrap;html=1;fillColor=#dae8fc;strokeColor=#6c8ebf;" vertex="1" parent="1">
          <mxGeometry x="435" y="490" width="100" height="60" as="geometry" />
        </mxCell>
        <mxCell id="6D9Z85qm0YUrqHq99hwS-25" value="" style="edgeStyle=orthogonalEdgeStyle;rounded=0;orthogonalLoop=1;jettySize=auto;html=1;" edge="1" parent="1" source="6D9Z85qm0YUrqHq99hwS-22" target="6D9Z85qm0YUrqHq99hwS-24">
          <mxGeometry relative="1" as="geometry" />
        </mxCell>
        <mxCell id="6D9Z85qm0YUrqHq99hwS-22" value="fair&lt;br&gt;[+3, -0]" style="ellipse;whiteSpace=wrap;html=1;fillColor=#dae8fc;strokeColor=#6c8ebf;" vertex="1" parent="1">
          <mxGeometry x="585" y="490" width="100" height="60" as="geometry" />
        </mxCell>
        <mxCell id="6D9Z85qm0YUrqHq99hwS-23" value="no" style="rounded=0;whiteSpace=wrap;html=1;fillColor=#e1d5e7;strokeColor=#9673a6;" vertex="1" parent="1">
          <mxGeometry x="447.5" y="595" width="75" height="30" as="geometry" />
        </mxCell>
        <mxCell id="6D9Z85qm0YUrqHq99hwS-24" value="yes" style="rounded=0;whiteSpace=wrap;html=1;fillColor=#e1d5e7;strokeColor=#9673a6;" vertex="1" parent="1">
          <mxGeometry x="597.5" y="595" width="75" height="30" as="geometry" />
        </mxCell>
      </root>
    </mxGraphModel>
  </diagram>
</mxfile>
